<?xml version="1.0" standalone="no"?>
<!DOCTYPE svg PUBLIC "-//W3C//DTD SVG 20010904//EN"
 "http://www.w3.org/TR/2001/REC-SVG-20010904/DTD/svg10.dtd">
<svg version="1.0" xmlns="http://www.w3.org/2000/svg"
 width="734.000000pt" height="734.000000pt" viewBox="0 0 734.000000 734.000000"
 preserveAspectRatio="xMidYMid meet">
<metadata>
Created by potrace 1.11, written by Peter Selinger 2001-2013
</metadata>
<g transform="translate(0.000000,734.000000) scale(0.100000,-0.100000)"
fill="#000000" stroke="none">
<path d="M3763 6307 c-14 -14 -40 -33 -193 -133 -63 -42 -131 -88 -150 -103
-19 -14 -43 -30 -52 -36 -9 -5 -69 -46 -133 -90 -63 -44 -122 -84 -130 -90
-21 -14 -26 -3 -26 64 l-1 61 -59 45 c-61 47 -98 56 -119 30 -7 -8 -17 -15
-22 -15 -5 0 -25 -12 -44 -27 l-34 -28 0 -224 c0 -208 -1 -223 -17 -216 -10 4
-76 29 -148 57 -171 65 -221 85 -402 157 -84 34 -161 61 -171 61 -17 0 -102
-31 -177 -65 -16 -8 -91 -37 -165 -65 -74 -28 -148 -58 -165 -65 -57 -26 -163
-65 -179 -65 -8 0 -18 -4 -21 -10 -15 -25 -25 -5 -25 50 0 35 -5 63 -12 69
-51 42 -111 81 -124 81 -23 0 -101 -49 -124 -77 -20 -25 -20 -42 -20 -1984 0
-1248 4 -1967 10 -1983 l10 -26 1091 0 c1031 0 1091 1 1095 18 3 9 6 197 7
417 2 432 4 449 58 560 47 95 54 105 118 166 120 115 281 170 435 148 73 -10
154 -35 176 -54 8 -7 30 -20 49 -30 79 -40 204 -200 235 -300 5 -16 12 -230
15 -475 l6 -445 1085 -3 c597 -1 1095 0 1108 3 l22 5 0 1990 0 1989 -57 40
c-63 46 -80 49 -120 24 -88 -56 -93 -62 -93 -130 0 -35 -4 -63 -10 -63 -5 0
-29 9 -52 20 -24 10 -72 30 -108 44 -133 50 -357 138 -410 161 -73 31 -141 55
-161 55 -9 0 -79 -25 -155 -56 -145 -59 -195 -79 -304 -120 -36 -14 -87 -35
-115 -46 -72 -30 -86 -35 -122 -47 -39 -12 -35 -38 -35 240 0 102 -3 190 -6
196 -4 5 -26 22 -49 36 -23 14 -44 31 -48 37 -14 22 -79 0 -132 -45 -7 -5 -19
-16 -28 -23 -11 -9 -15 -32 -15 -77 0 -36 -4 -65 -9 -65 -9 0 -82 45 -146 90
-64 45 -287 197 -418 286 -141 96 -184 112 -214 81z m-1641 -1698 c81 -17 140
-52 197 -116 46 -51 56 -70 52 -95 0 -5 3 -8 8 -8 22 0 31 -101 31 -332 0
-134 -4 -249 -8 -256 -7 -9 -82 -12 -343 -10 l-334 3 0 285 0 285 28 55 c51
100 126 160 232 186 65 16 74 16 137 3z m1813 -20 c99 -37 176 -122 204 -225
12 -46 19 -544 7 -563 -11 -17 -660 -15 -674 2 -14 18 -15 432 -1 514 14 83
37 131 92 190 97 105 231 135 372 82z m1706 17 c70 -21 109 -44 157 -90 48
-45 76 -91 67 -107 -4 -5 -1 -8 6 -7 28 6 40 -118 37 -367 l-3 -240 -340 0
-340 0 -5 35 c-3 19 -3 150 0 290 l6 255 29 53 c51 93 152 169 245 183 72 10
92 10 141 -5z m-3517 -1621 c37 -8 87 -26 110 -39 51 -30 111 -94 131 -139 7
-18 20 -48 29 -69 13 -30 16 -81 16 -302 l0 -266 -346 0 -345 0 3 283 c3 268
4 284 25 331 55 118 148 184 303 215 3 0 36 -6 74 -14z m3547 -11 c75 -24 158
-98 199 -179 l35 -70 3 -277 4 -278 -351 0 -350 0 2 258 c2 182 7 272 16 307
36 127 135 222 262 249 68 15 106 13 180 -10z"/>
</g>
</svg>
